<svg width="1920" height="468" viewBox="0 0 1920 468" fill="none" xmlns="http://www.w3.org/2000/svg">
<mask id="mask0_29_411" style="mask-type:alpha" maskUnits="userSpaceOnUse" x="0" y="0" width="1920" height="468">
<rect width="1920" height="335" fill="#1380FF"/>
<rect x="1636" y="255" width="64" height="160" rx="32" fill="#1380FF"/>
<rect x="1745" y="284" width="41" height="102" rx="20.5" fill="#1380FF"/>
<rect x="1801" y="265" width="64" height="203" rx="32" fill="#1380FF"/>
<rect x="87" y="281" width="70" height="114" rx="35" fill="#1380FF"/>
<path d="M178 319C178 307.954 186.954 299 198 299C209.046 299 218 307.954 218 319V415C218 426.046 209.046 435 198 435C186.954 435 178 426.046 178 415V319Z" fill="#1380FF"/>
</mask>
<g mask="url(#mask0_29_411)">
<g filter="url(#filter0_f_29_411)">
<path d="M689.289 244.14C692.93 228.817 706.618 218 722.368 218L1194.4 218C1210.03 218 1223.64 228.651 1227.4 243.818L1270.54 417.818C1275.86 439.261 1259.63 460 1237.54 460H681.025C659.07 460 642.871 439.501 647.946 418.14L689.289 244.14Z" fill="url(#paint0_radial_29_411)" fill-opacity="0.35"/>
</g>
</g>
<path d="M679 299L691 311L703 299" stroke="#E6E6E6" stroke-opacity="0.5" stroke-width="3" stroke-linecap="round"/>
<path d="M858 299L870 311L882 299" stroke="#E6E6E6" stroke-width="3" stroke-linecap="round"/>
<path d="M1037 299L1049 311L1061 299" stroke="#E6E6E6" stroke-width="3" stroke-linecap="round"/>
<path d="M1216 305L1228 317L1240 305" stroke="#E6E6E6" stroke-opacity="0.5" stroke-width="3" stroke-linecap="round"/>
<defs>
<filter id="filter0_f_29_411" x="547.01" y="118" width="824.548" height="442" filterUnits="userSpaceOnUse" color-interpolation-filters="sRGB">
<feFlood flood-opacity="0" result="BackgroundImageFix"/>
<feBlend mode="normal" in="SourceGraphic" in2="BackgroundImageFix" result="shape"/>
<feGaussianBlur stdDeviation="50" result="effect1_foregroundBlur_29_411"/>
</filter>
<radialGradient id="paint0_radial_29_411" cx="0" cy="0" r="1" gradientUnits="userSpaceOnUse" gradientTransform="translate(955.945 414) rotate(-90) scale(153.5 407.853)">
<stop stop-color="white"/>
<stop offset="1" stop-color="white" stop-opacity="0"/>
</radialGradient>
</defs>
</svg>
