<svg width="1176" height="731" viewBox="0 0 1176 731" fill="none" xmlns="http://www.w3.org/2000/svg">
<mask id="mask0_193_242" style="mask-type:alpha" maskUnits="userSpaceOnUse" x="0" y="0" width="1176" height="731">
<rect x="1.5" y="1.5" width="1173" height="728" rx="66.5" fill="#262626" stroke="#1380FF" stroke-width="3"/>
</mask>
<g mask="url(#mask0_193_242)">
<mask id="mask1_193_242" style="mask-type:alpha" maskUnits="userSpaceOnUse" x="960" y="-261" width="374" height="1356">
<path d="M1194.17 578.5L1163.5 609.172L1132.83 578.5L1163.5 547.828L1194.17 578.5Z" stroke="#E6E6E6" stroke-width="4"/>
<path d="M1228.17 544.5L1197.5 575.172L1166.83 544.5L1197.5 513.828L1228.17 544.5Z" stroke="#E6E6E6" stroke-width="4"/>
<path d="M1228.17 612.5L1197.5 643.172L1166.83 612.5L1197.5 581.828L1228.17 612.5Z" stroke="#E6E6E6" stroke-width="4"/>
<path d="M1194.17 442.5L1163.5 473.172L1132.83 442.5L1163.5 411.828L1194.17 442.5Z" stroke="#E6E6E6" stroke-width="4"/>
<path d="M1228.17 408.5L1197.5 439.172L1166.83 408.5L1197.5 377.828L1228.17 408.5Z" stroke="#E6E6E6" stroke-width="4"/>
<path d="M1228.17 476.5L1197.5 507.172L1166.83 476.5L1197.5 445.828L1228.17 476.5Z" stroke="#E6E6E6" stroke-width="4"/>
<path d="M1194.17 306.5L1163.5 337.172L1132.83 306.5L1163.5 275.828L1194.17 306.5Z" stroke="#E6E6E6" stroke-width="4"/>
<path d="M1228.17 272.5L1197.5 303.172L1166.83 272.5L1197.5 241.828L1228.17 272.5Z" stroke="#E6E6E6" stroke-width="4"/>
<path d="M1228.17 340.5L1197.5 371.172L1166.83 340.5L1197.5 309.828L1228.17 340.5Z" stroke="#E6E6E6" stroke-width="4"/>
<path d="M1194.17 510.5L1163.5 541.172L1132.83 510.5L1163.5 479.828L1194.17 510.5Z" stroke="#E6E6E6" stroke-width="4"/>
<path d="M1126.17 510.5L1095.5 541.172L1064.83 510.5L1095.5 479.828L1126.17 510.5Z" stroke="#E6E6E6" stroke-width="4"/>
<path d="M1160.17 476.5L1129.5 507.172L1098.83 476.5L1129.5 445.828L1160.17 476.5Z" stroke="#E6E6E6" stroke-width="4"/>
<path d="M1160.17 544.5L1129.5 575.172L1098.83 544.5L1129.5 513.828L1160.17 544.5Z" stroke="#E6E6E6" stroke-width="4"/>
<path d="M1058.17 510.5L1027.5 541.172L996.828 510.5L1027.5 479.828L1058.17 510.5Z" stroke="#E6E6E6" stroke-width="4"/>
<path d="M1024.17 476.5L993.5 507.172L962.828 476.5L993.5 445.828L1024.17 476.5Z" stroke="#E6E6E6" stroke-width="4"/>
<path d="M1024.17 544.5L993.5 575.172L962.828 544.5L993.5 513.828L1024.17 544.5Z" stroke="#E6E6E6" stroke-width="4"/>
<path d="M1194.17 238.5L1163.5 269.172L1132.83 238.5L1163.5 207.828L1194.17 238.5Z" stroke="#E6E6E6" stroke-width="4"/>
<path d="M1126.17 238.5L1095.5 269.172L1064.83 238.5L1095.5 207.828L1126.17 238.5Z" stroke="#E6E6E6" stroke-width="4"/>
<path d="M1160.17 204.5L1129.5 235.172L1098.83 204.5L1129.5 173.828L1160.17 204.5Z" stroke="#E6E6E6" stroke-width="4"/>
<path d="M1160.17 272.5L1129.5 303.172L1098.83 272.5L1129.5 241.828L1160.17 272.5Z" stroke="#E6E6E6" stroke-width="4"/>
<path d="M1058.17 238.5L1027.5 269.172L996.828 238.5L1027.5 207.828L1058.17 238.5Z" stroke="#E6E6E6" stroke-width="4"/>
<path d="M1024.17 204.5L993.5 235.172L962.828 204.5L993.5 173.828L1024.17 204.5Z" stroke="#E6E6E6" stroke-width="4"/>
<path d="M1024.17 272.5L993.5 303.172L962.828 272.5L993.5 241.828L1024.17 272.5Z" stroke="#E6E6E6" stroke-width="4"/>
<path d="M1194.17 374.5L1163.5 405.172L1132.83 374.5L1163.5 343.828L1194.17 374.5Z" stroke="#E6E6E6" stroke-width="4"/>
<path d="M1126.17 374.5L1095.5 405.172L1064.83 374.5L1095.5 343.828L1126.17 374.5Z" stroke="#E6E6E6" stroke-width="4"/>
<path d="M1160.17 340.5L1129.5 371.172L1098.83 340.5L1129.5 309.828L1160.17 340.5Z" stroke="#E6E6E6" stroke-width="4"/>
<path d="M1160.17 408.5L1129.5 439.172L1098.83 408.5L1129.5 377.828L1160.17 408.5Z" stroke="#E6E6E6" stroke-width="4"/>
<path d="M1058.17 374.5L1027.5 405.172L996.828 374.5L1027.5 343.828L1058.17 374.5Z" stroke="#E6E6E6" stroke-width="4"/>
<path d="M1024.17 340.5L993.5 371.172L962.828 340.5L993.5 309.828L1024.17 340.5Z" stroke="#E6E6E6" stroke-width="4"/>
<path d="M1024.17 408.5L993.5 439.172L962.828 408.5L993.5 377.828L1024.17 408.5Z" stroke="#E6E6E6" stroke-width="4"/>
<path d="M1126.17 442.5L1095.5 473.172L1064.83 442.5L1095.5 411.828L1126.17 442.5Z" stroke="#E6E6E6" stroke-width="4"/>
<path d="M1058.17 442.5L1027.5 473.172L996.828 442.5L1027.5 411.828L1058.17 442.5Z" stroke="#E6E6E6" stroke-width="4"/>
<path d="M1092.17 408.5L1061.5 439.172L1030.83 408.5L1061.5 377.828L1092.17 408.5Z" stroke="#E6E6E6" stroke-width="4"/>
<path d="M1092.17 476.5L1061.5 507.172L1030.83 476.5L1061.5 445.828L1092.17 476.5Z" stroke="#E6E6E6" stroke-width="4"/>
<path d="M1126.17 306.5L1095.5 337.172L1064.83 306.5L1095.5 275.828L1126.17 306.5Z" stroke="#E6E6E6" stroke-width="4"/>
<path d="M1058.17 306.5L1027.5 337.172L996.828 306.5L1027.5 275.828L1058.17 306.5Z" stroke="#E6E6E6" stroke-width="4"/>
<path d="M1092.17 272.5L1061.5 303.172L1030.83 272.5L1061.5 241.828L1092.17 272.5Z" stroke="#E6E6E6" stroke-width="4"/>
<path d="M1092.17 340.5L1061.5 371.172L1030.83 340.5L1061.5 309.828L1092.17 340.5Z" stroke="#E6E6E6" stroke-width="4"/>
<path d="M1126.17 578.5L1095.5 609.172L1064.83 578.5L1095.5 547.828L1126.17 578.5Z" stroke="#E6E6E6" stroke-width="4"/>
<path d="M1058.17 578.5L1027.5 609.172L996.828 578.5L1027.5 547.828L1058.17 578.5Z" stroke="#E6E6E6" stroke-width="4"/>
<path d="M1092.17 544.5L1061.5 575.172L1030.83 544.5L1061.5 513.828L1092.17 544.5Z" stroke="#E6E6E6" stroke-width="4"/>
<path d="M1092.17 612.5L1061.5 643.172L1030.83 612.5L1061.5 581.828L1092.17 612.5Z" stroke="#E6E6E6" stroke-width="4"/>
<path d="M1194.17 146.5L1163.5 177.172L1132.83 146.5L1163.5 115.828L1194.17 146.5Z" stroke="#E6E6E6" stroke-width="4"/>
<path d="M1228.17 112.5L1197.5 143.172L1166.83 112.5L1197.5 81.8284L1228.17 112.5Z" stroke="#E6E6E6" stroke-width="4"/>
<path d="M1228.17 180.5L1197.5 211.172L1166.83 180.5L1197.5 149.828L1228.17 180.5Z" stroke="#E6E6E6" stroke-width="4"/>
<path d="M1194.17 10.5L1163.5 41.1716L1132.83 10.5L1163.5 -20.1716L1194.17 10.5Z" stroke="#E6E6E6" stroke-width="4"/>
<path d="M1228.17 -23.5L1197.5 7.17157L1166.83 -23.5L1197.5 -54.1716L1228.17 -23.5Z" stroke="#E6E6E6" stroke-width="4"/>
<path d="M1228.17 44.5L1197.5 75.1716L1166.83 44.5L1197.5 13.8284L1228.17 44.5Z" stroke="#E6E6E6" stroke-width="4"/>
<path d="M1194.17 78.5L1163.5 109.172L1132.83 78.5L1163.5 47.8284L1194.17 78.5Z" stroke="#E6E6E6" stroke-width="4"/>
<path d="M1126.17 78.5L1095.5 109.172L1064.83 78.5L1095.5 47.8284L1126.17 78.5Z" stroke="#E6E6E6" stroke-width="4"/>
<path d="M1160.17 44.5L1129.5 75.1716L1098.83 44.5L1129.5 13.8284L1160.17 44.5Z" stroke="#E6E6E6" stroke-width="4"/>
<path d="M1160.17 112.5L1129.5 143.172L1098.83 112.5L1129.5 81.8284L1160.17 112.5Z" stroke="#E6E6E6" stroke-width="4"/>
<path d="M1058.17 78.5L1027.5 109.172L996.828 78.5L1027.5 47.8284L1058.17 78.5Z" stroke="#E6E6E6" stroke-width="4"/>
<path d="M1024.17 44.5L993.5 75.1716L962.828 44.5L993.5 13.8284L1024.17 44.5Z" stroke="#E6E6E6" stroke-width="4"/>
<path d="M1024.17 112.5L993.5 143.172L962.828 112.5L993.5 81.8284L1024.17 112.5Z" stroke="#E6E6E6" stroke-width="4"/>
<path d="M1160.17 -23.5L1129.5 7.17157L1098.83 -23.5L1129.5 -54.1716L1160.17 -23.5Z" stroke="#E6E6E6" stroke-width="4"/>
<path d="M1024.17 -23.5L993.5 7.17157L962.828 -23.5L993.5 -54.1716L1024.17 -23.5Z" stroke="#E6E6E6" stroke-width="4"/>
<path d="M1126.17 10.5L1095.5 41.1716L1064.83 10.5L1095.5 -20.1716L1126.17 10.5Z" stroke="#E6E6E6" stroke-width="4"/>
<path d="M1058.17 10.5L1027.5 41.1716L996.828 10.5L1027.5 -20.1716L1058.17 10.5Z" stroke="#E6E6E6" stroke-width="4"/>
<path d="M1092.17 -23.5L1061.5 7.17157L1030.83 -23.5L1061.5 -54.1716L1092.17 -23.5Z" stroke="#E6E6E6" stroke-width="4"/>
<path d="M1092.17 44.5L1061.5 75.1716L1030.83 44.5L1061.5 13.8284L1092.17 44.5Z" stroke="#E6E6E6" stroke-width="4"/>
<path d="M1126.17 146.5L1095.5 177.172L1064.83 146.5L1095.5 115.828L1126.17 146.5Z" stroke="#E6E6E6" stroke-width="4"/>
<path d="M1058.17 146.5L1027.5 177.172L996.828 146.5L1027.5 115.828L1058.17 146.5Z" stroke="#E6E6E6" stroke-width="4"/>
<path d="M1092.17 112.5L1061.5 143.172L1030.83 112.5L1061.5 81.8284L1092.17 112.5Z" stroke="#E6E6E6" stroke-width="4"/>
<path d="M1092.17 180.5L1061.5 211.172L1030.83 180.5L1061.5 149.828L1092.17 180.5Z" stroke="#E6E6E6" stroke-width="4"/>
<path d="M1194.17 735.5L1163.5 766.172L1132.83 735.5L1163.5 704.828L1194.17 735.5Z" stroke="#E6E6E6" stroke-width="4"/>
<path d="M1228.17 701.5L1197.5 732.172L1166.83 701.5L1197.5 670.828L1228.17 701.5Z" stroke="#E6E6E6" stroke-width="4"/>
<path d="M1194.17 667.5L1163.5 698.172L1132.83 667.5L1163.5 636.828L1194.17 667.5Z" stroke="#E6E6E6" stroke-width="4"/>
<path d="M1126.17 667.5L1095.5 698.172L1064.83 667.5L1095.5 636.828L1126.17 667.5Z" stroke="#E6E6E6" stroke-width="4"/>
<path d="M1160.17 633.5L1129.5 664.172L1098.83 633.5L1129.5 602.828L1160.17 633.5Z" stroke="#E6E6E6" stroke-width="4"/>
<path d="M1160.17 701.5L1129.5 732.172L1098.83 701.5L1129.5 670.828L1160.17 701.5Z" stroke="#E6E6E6" stroke-width="4"/>
<path d="M1058.17 667.5L1027.5 698.172L996.829 667.5L1027.5 636.828L1058.17 667.5Z" stroke="#E6E6E6" stroke-width="4"/>
<path d="M1024.17 633.5L993.5 664.172L962.829 633.5L993.5 602.828L1024.17 633.5Z" stroke="#E6E6E6" stroke-width="4"/>
<path d="M1024.17 701.5L993.5 732.172L962.829 701.5L993.5 670.828L1024.17 701.5Z" stroke="#E6E6E6" stroke-width="4"/>
<path d="M1126.17 735.5L1095.5 766.172L1064.83 735.5L1095.5 704.828L1126.17 735.5Z" stroke="#E6E6E6" stroke-width="4"/>
<path d="M1058.17 735.5L1027.5 766.172L996.829 735.5L1027.5 704.828L1058.17 735.5Z" stroke="#E6E6E6" stroke-width="4"/>
<path d="M1092.17 701.5L1061.5 732.172L1030.83 701.5L1061.5 670.828L1092.17 701.5Z" stroke="#E6E6E6" stroke-width="4"/>
</mask>
<g mask="url(#mask1_193_242)">
<rect x="1231" y="1018" width="359" height="1080" transform="rotate(180 1231 1018)" fill="url(#paint0_linear_193_242)" fill-opacity="0.35"/>
</g>
<mask id="mask2_193_242" style="mask-type:alpha" maskUnits="userSpaceOnUse" x="-163" y="-261" width="374" height="1356">
<path d="M-24.1715 578.5L6.50009 609.172L37.1717 578.5L6.5001 547.828L-24.1715 578.5Z" stroke="#E6E6E6" stroke-width="4"/>
<path d="M-58.1715 544.5L-27.4999 575.172L3.17166 544.5L-27.4999 513.828L-58.1715 544.5Z" stroke="#E6E6E6" stroke-width="4"/>
<path d="M-58.1715 612.5L-27.4999 643.172L3.17166 612.5L-27.4999 581.828L-58.1715 612.5Z" stroke="#E6E6E6" stroke-width="4"/>
<path d="M-24.1715 442.5L6.50009 473.172L37.1717 442.5L6.5001 411.828L-24.1715 442.5Z" stroke="#E6E6E6" stroke-width="4"/>
<path d="M-58.1715 408.5L-27.4999 439.172L3.17166 408.5L-27.4999 377.828L-58.1715 408.5Z" stroke="#E6E6E6" stroke-width="4"/>
<path d="M-58.1715 476.5L-27.4999 507.172L3.17166 476.5L-27.4999 445.828L-58.1715 476.5Z" stroke="#E6E6E6" stroke-width="4"/>
<path d="M-24.1714 306.5L6.50012 337.172L37.1717 306.5L6.50013 275.828L-24.1714 306.5Z" stroke="#E6E6E6" stroke-width="4"/>
<path d="M-58.1714 272.5L-27.4999 303.172L3.17169 272.5L-27.4999 241.828L-58.1714 272.5Z" stroke="#E6E6E6" stroke-width="4"/>
<path d="M-58.1714 340.5L-27.4999 371.172L3.17169 340.5L-27.4999 309.828L-58.1714 340.5Z" stroke="#E6E6E6" stroke-width="4"/>
<path d="M-24.1715 510.5L6.50009 541.172L37.1717 510.5L6.5001 479.828L-24.1715 510.5Z" stroke="#E6E6E6" stroke-width="4"/>
<path d="M43.8285 510.5L74.5001 541.172L105.172 510.5L74.5001 479.828L43.8285 510.5Z" stroke="#E6E6E6" stroke-width="4"/>
<path d="M9.82852 476.5L40.5001 507.172L71.1717 476.5L40.5001 445.828L9.82852 476.5Z" stroke="#E6E6E6" stroke-width="4"/>
<path d="M9.82852 544.5L40.5001 575.172L71.1717 544.5L40.5001 513.828L9.82852 544.5Z" stroke="#E6E6E6" stroke-width="4"/>
<path d="M111.829 510.5L142.5 541.172L173.172 510.5L142.5 479.828L111.829 510.5Z" stroke="#E6E6E6" stroke-width="4"/>
<path d="M145.829 476.5L176.5 507.172L207.172 476.5L176.5 445.828L145.829 476.5Z" stroke="#E6E6E6" stroke-width="4"/>
<path d="M145.829 544.5L176.5 575.172L207.172 544.5L176.5 513.828L145.829 544.5Z" stroke="#E6E6E6" stroke-width="4"/>
<path d="M-24.1714 238.5L6.50012 269.172L37.1717 238.5L6.50013 207.828L-24.1714 238.5Z" stroke="#E6E6E6" stroke-width="4"/>
<path d="M43.8286 238.5L74.5001 269.172L105.172 238.5L74.5001 207.828L43.8286 238.5Z" stroke="#E6E6E6" stroke-width="4"/>
<path d="M9.82855 204.5L40.5001 235.172L71.1717 204.5L40.5001 173.828L9.82855 204.5Z" stroke="#E6E6E6" stroke-width="4"/>
<path d="M9.82855 272.5L40.5001 303.172L71.1717 272.5L40.5001 241.828L9.82855 272.5Z" stroke="#E6E6E6" stroke-width="4"/>
<path d="M111.829 238.5L142.5 269.172L173.172 238.5L142.5 207.828L111.829 238.5Z" stroke="#E6E6E6" stroke-width="4"/>
<path d="M145.829 204.5L176.5 235.172L207.172 204.5L176.5 173.828L145.829 204.5Z" stroke="#E6E6E6" stroke-width="4"/>
<path d="M145.829 272.5L176.5 303.172L207.172 272.5L176.5 241.828L145.829 272.5Z" stroke="#E6E6E6" stroke-width="4"/>
<path d="M-24.1715 374.5L6.50011 405.172L37.1717 374.5L6.50011 343.828L-24.1715 374.5Z" stroke="#E6E6E6" stroke-width="4"/>
<path d="M43.8285 374.5L74.5001 405.172L105.172 374.5L74.5001 343.828L43.8285 374.5Z" stroke="#E6E6E6" stroke-width="4"/>
<path d="M9.82854 340.5L40.5001 371.172L71.1717 340.5L40.5001 309.828L9.82854 340.5Z" stroke="#E6E6E6" stroke-width="4"/>
<path d="M9.82854 408.5L40.5001 439.172L71.1717 408.5L40.5001 377.828L9.82854 408.5Z" stroke="#E6E6E6" stroke-width="4"/>
<path d="M111.829 374.5L142.5 405.172L173.172 374.5L142.5 343.828L111.829 374.5Z" stroke="#E6E6E6" stroke-width="4"/>
<path d="M145.829 340.5L176.5 371.172L207.172 340.5L176.5 309.828L145.829 340.5Z" stroke="#E6E6E6" stroke-width="4"/>
<path d="M145.829 408.5L176.5 439.172L207.172 408.5L176.5 377.828L145.829 408.5Z" stroke="#E6E6E6" stroke-width="4"/>
<path d="M43.8285 442.5L74.5001 473.172L105.172 442.5L74.5001 411.828L43.8285 442.5Z" stroke="#E6E6E6" stroke-width="4"/>
<path d="M111.829 442.5L142.5 473.172L173.172 442.5L142.5 411.828L111.829 442.5Z" stroke="#E6E6E6" stroke-width="4"/>
<path d="M77.8285 408.5L108.5 439.172L139.172 408.5L108.5 377.828L77.8285 408.5Z" stroke="#E6E6E6" stroke-width="4"/>
<path d="M77.8285 476.5L108.5 507.172L139.172 476.5L108.5 445.828L77.8285 476.5Z" stroke="#E6E6E6" stroke-width="4"/>
<path d="M43.8286 306.5L74.5001 337.172L105.172 306.5L74.5001 275.828L43.8286 306.5Z" stroke="#E6E6E6" stroke-width="4"/>
<path d="M111.829 306.5L142.5 337.172L173.172 306.5L142.5 275.828L111.829 306.5Z" stroke="#E6E6E6" stroke-width="4"/>
<path d="M77.8286 272.5L108.5 303.172L139.172 272.5L108.5 241.828L77.8286 272.5Z" stroke="#E6E6E6" stroke-width="4"/>
<path d="M77.8286 340.5L108.5 371.172L139.172 340.5L108.5 309.828L77.8286 340.5Z" stroke="#E6E6E6" stroke-width="4"/>
<path d="M43.8285 578.5L74.5001 609.172L105.172 578.5L74.5001 547.828L43.8285 578.5Z" stroke="#E6E6E6" stroke-width="4"/>
<path d="M111.829 578.5L142.5 609.172L173.172 578.5L142.5 547.828L111.829 578.5Z" stroke="#E6E6E6" stroke-width="4"/>
<path d="M77.8285 544.5L108.5 575.172L139.172 544.5L108.5 513.828L77.8285 544.5Z" stroke="#E6E6E6" stroke-width="4"/>
<path d="M77.8285 612.5L108.5 643.172L139.172 612.5L108.5 581.828L77.8285 612.5Z" stroke="#E6E6E6" stroke-width="4"/>
<path d="M-24.1715 146.5L6.50009 177.172L37.1717 146.5L6.5001 115.828L-24.1715 146.5Z" stroke="#E6E6E6" stroke-width="4"/>
<path d="M-58.1715 112.5L-27.4999 143.172L3.17166 112.5L-27.4999 81.8284L-58.1715 112.5Z" stroke="#E6E6E6" stroke-width="4"/>
<path d="M-58.1715 180.5L-27.4999 211.172L3.17166 180.5L-27.4999 149.828L-58.1715 180.5Z" stroke="#E6E6E6" stroke-width="4"/>
<path d="M-24.1715 10.5L6.50009 41.1716L37.1717 10.5L6.5001 -20.1716L-24.1715 10.5Z" stroke="#E6E6E6" stroke-width="4"/>
<path d="M-58.1715 -23.5L-27.4999 7.17157L3.17166 -23.5L-27.4999 -54.1716L-58.1715 -23.5Z" stroke="#E6E6E6" stroke-width="4"/>
<path d="M-58.1715 44.5L-27.4999 75.1716L3.17166 44.5L-27.4999 13.8284L-58.1715 44.5Z" stroke="#E6E6E6" stroke-width="4"/>
<path d="M-24.1715 78.5L6.50009 109.172L37.1717 78.5L6.5001 47.8284L-24.1715 78.5Z" stroke="#E6E6E6" stroke-width="4"/>
<path d="M43.8285 78.5L74.5001 109.172L105.172 78.5L74.5001 47.8284L43.8285 78.5Z" stroke="#E6E6E6" stroke-width="4"/>
<path d="M9.82852 44.5L40.5001 75.1716L71.1717 44.5L40.5001 13.8284L9.82852 44.5Z" stroke="#E6E6E6" stroke-width="4"/>
<path d="M9.82852 112.5L40.5001 143.172L71.1717 112.5L40.5001 81.8284L9.82852 112.5Z" stroke="#E6E6E6" stroke-width="4"/>
<path d="M111.829 78.5L142.5 109.172L173.172 78.5L142.5 47.8284L111.829 78.5Z" stroke="#E6E6E6" stroke-width="4"/>
<path d="M145.829 44.5L176.5 75.1716L207.172 44.5L176.5 13.8284L145.829 44.5Z" stroke="#E6E6E6" stroke-width="4"/>
<path d="M145.829 112.5L176.5 143.172L207.172 112.5L176.5 81.8284L145.829 112.5Z" stroke="#E6E6E6" stroke-width="4"/>
<path d="M9.82854 -23.5L40.5001 7.17157L71.1717 -23.5L40.5001 -54.1716L9.82854 -23.5Z" stroke="#E6E6E6" stroke-width="4"/>
<path d="M145.829 -23.5L176.5 7.17157L207.172 -23.5L176.5 -54.1716L145.829 -23.5Z" stroke="#E6E6E6" stroke-width="4"/>
<path d="M43.8285 10.5L74.5001 41.1716L105.172 10.5L74.5001 -20.1716L43.8285 10.5Z" stroke="#E6E6E6" stroke-width="4"/>
<path d="M111.829 10.5L142.5 41.1716L173.172 10.5L142.5 -20.1716L111.829 10.5Z" stroke="#E6E6E6" stroke-width="4"/>
<path d="M77.8285 -23.5L108.5 7.17157L139.172 -23.5L108.5 -54.1716L77.8285 -23.5Z" stroke="#E6E6E6" stroke-width="4"/>
<path d="M77.8285 44.5L108.5 75.1716L139.172 44.5L108.5 13.8284L77.8285 44.5Z" stroke="#E6E6E6" stroke-width="4"/>
<path d="M43.8285 146.5L74.5001 177.172L105.172 146.5L74.5001 115.828L43.8285 146.5Z" stroke="#E6E6E6" stroke-width="4"/>
<path d="M111.829 146.5L142.5 177.172L173.172 146.5L142.5 115.828L111.829 146.5Z" stroke="#E6E6E6" stroke-width="4"/>
<path d="M77.8285 112.5L108.5 143.172L139.172 112.5L108.5 81.8284L77.8285 112.5Z" stroke="#E6E6E6" stroke-width="4"/>
<path d="M77.8285 180.5L108.5 211.172L139.172 180.5L108.5 149.828L77.8285 180.5Z" stroke="#E6E6E6" stroke-width="4"/>
<path d="M-24.1715 735.5L6.50003 766.172L37.1716 735.5L6.50004 704.828L-24.1715 735.5Z" stroke="#E6E6E6" stroke-width="4"/>
<path d="M-58.1715 701.5L-27.5 732.172L3.1716 701.5L-27.5 670.828L-58.1715 701.5Z" stroke="#E6E6E6" stroke-width="4"/>
<path d="M-24.1715 667.5L6.50005 698.172L37.1716 667.5L6.50005 636.828L-24.1715 667.5Z" stroke="#E6E6E6" stroke-width="4"/>
<path d="M43.8285 667.5L74.5 698.172L105.172 667.5L74.5001 636.828L43.8285 667.5Z" stroke="#E6E6E6" stroke-width="4"/>
<path d="M9.82848 633.5L40.5 664.172L71.1716 633.5L40.5001 602.828L9.82848 633.5Z" stroke="#E6E6E6" stroke-width="4"/>
<path d="M9.82848 701.5L40.5 732.172L71.1716 701.5L40.5001 670.828L9.82848 701.5Z" stroke="#E6E6E6" stroke-width="4"/>
<path d="M111.828 667.5L142.5 698.172L173.172 667.5L142.5 636.828L111.828 667.5Z" stroke="#E6E6E6" stroke-width="4"/>
<path d="M145.828 633.5L176.5 664.172L207.172 633.5L176.5 602.828L145.828 633.5Z" stroke="#E6E6E6" stroke-width="4"/>
<path d="M145.828 701.5L176.5 732.172L207.172 701.5L176.5 670.828L145.828 701.5Z" stroke="#E6E6E6" stroke-width="4"/>
<path d="M43.8285 735.5L74.5 766.172L105.172 735.5L74.5001 704.828L43.8285 735.5Z" stroke="#E6E6E6" stroke-width="4"/>
<path d="M111.828 735.5L142.5 766.172L173.172 735.5L142.5 704.828L111.828 735.5Z" stroke="#E6E6E6" stroke-width="4"/>
<path d="M77.8285 701.5L108.5 732.172L139.172 701.5L108.5 670.828L77.8285 701.5Z" stroke="#E6E6E6" stroke-width="4"/>
</mask>
<g mask="url(#mask2_193_242)">
<rect width="359" height="1080" transform="matrix(1 9.39469e-08 8.13518e-08 -1 -60.9999 1018)" fill="url(#paint1_linear_193_242)" fill-opacity="0.35"/>
</g>
</g>
<defs>
<linearGradient id="paint0_linear_193_242" x1="1228.51" y1="1559.24" x2="1602.96" y2="1559.24" gradientUnits="userSpaceOnUse">
<stop stop-color="#1380FF"/>
<stop offset="1" stop-color="#262626"/>
</linearGradient>
<linearGradient id="paint1_linear_193_242" x1="-2.49305" y1="541.241" x2="371.964" y2="541.241" gradientUnits="userSpaceOnUse">
<stop stop-color="#1380FF"/>
<stop offset="1" stop-color="#262626"/>
</linearGradient>
</defs>
</svg>
