<svg width="50" height="50" viewBox="0 0 102 102" fill="none" xmlns="http://www.w3.org/2000/svg">
<path d="M7.07637 92.6531L8.1351 93.7193C14.9779 100.61 26.1111 100.649 33.0018 93.8059L36.2488 90.5814C41.3462 85.5194 41.3749 77.2836 36.3129 72.1861C33.553 69.4069 32.2327 65.4924 33.8578 61.9287C35.6044 58.0986 38.9188 52.6651 45.1708 46.4566C51.5542 40.1175 57.5407 36.4056 61.8077 34.305C65.6386 32.419 70.0194 33.6506 73.0282 36.6804C77.8266 41.5124 85.6335 41.5396 90.4655 36.7411L93.9547 33.2761C100.714 26.5641 100.752 15.6436 94.0397 8.88459L93.0141 7.85184C90.1256 4.94313 86.3485 3.04823 82.2656 3.41505C72.5993 4.28352 52.8352 9.05267 30.2748 31.4565C7.59133 53.9825 3.31559 73.2489 2.74314 82.5278C2.50507 86.3869 4.35195 89.9097 7.07637 92.6531Z" stroke="#1380FF" stroke-width="5"/>
</svg>
