<svg width="35" height="35" viewBox="0 0 35 35" fill="none" xmlns="http://www.w3.org/2000/svg">
<path id="phone" d="M3.34734 31.6942L3.69956 32.0489C5.97606 34.3413 9.67991 34.3542 11.9723 32.0777L13.0525 31.0049C14.7484 29.3209 14.7579 26.581 13.0739 24.8851C12.1557 23.9605 11.7165 22.6582 12.2571 21.4726C12.8382 20.1984 13.9408 18.3908 16.0208 16.3253C18.1444 14.2164 20.136 12.9815 21.5556 12.2827C22.8301 11.6552 24.2875 12.0649 25.2885 13.0729C26.8848 14.6804 29.4821 14.6895 31.0896 13.0931L32.2504 11.9404C34.499 9.70737 34.5117 6.0743 32.2787 3.82569L31.9375 3.48211C30.9765 2.51443 29.7199 1.88402 28.3616 2.00606C25.1458 2.29499 18.5706 3.88161 11.0651 11.335C3.51866 18.8291 2.09618 25.2387 1.90574 28.3256C1.82653 29.6095 2.44096 30.7815 3.34734 31.6942Z" stroke="#1380FF" stroke-width="2"/>
</svg>
