<svg width="29" height="55" viewBox="0 0 29 55" fill="none" xmlns="http://www.w3.org/2000/svg">
<path fill-rule="evenodd" clip-rule="evenodd" d="M10.5426 0.037476C10.5615 0.0604156 10.87 0.338036 11.228 0.654359C11.9748 1.31412 12.0549 1.39391 13.1826 2.59935C13.6412 3.08957 14.2263 3.71232 14.4828 3.98323C15.3765 4.92736 16.2228 5.85119 16.7616 6.4706C17.5668 7.3963 18.7813 8.99532 19.1049 9.55567C20.1688 11.3985 19.9588 12.6562 18.4253 13.6259C17.5537 14.177 15.6401 14.8913 12.1503 15.968C11.842 16.0632 11.1014 16.298 10.5047 16.49C9.9079 16.682 9.16737 16.9148 8.85904 17.0075C7.21132 17.5025 6.41155 17.9955 5.90137 18.8306C5.1765 20.0172 5.3713 21.667 6.35386 22.6625C6.5215 22.8324 7.78573 23.879 9.22939 25.0431C9.42275 25.199 10.6287 26.1858 11.2461 26.6933C11.8487 27.1887 12.8448 28.0026 13.9948 28.9395C14.3827 29.2555 14.7571 29.5621 14.8267 29.621C14.8963 29.6798 15.1486 29.8862 15.3873 30.0795C15.626 30.2729 16.1015 30.6603 16.4439 30.9404C18.2503 32.4182 18.598 32.6956 18.6155 32.673C18.6357 32.6468 18.4221 32.3098 18.0642 31.8031C16.496 29.5831 13.7533 25.8683 11.6681 23.1398L10.6951 21.8666L11.1062 21.6996C11.3324 21.6078 12.1765 21.2875 12.9821 20.9878C15.791 19.9428 18.1216 18.9991 18.9583 18.5677C19.7484 18.1605 20.8357 17.3774 21.4705 16.7584C22.5723 15.6841 23.1481 14.3819 23.2923 12.6384C23.4154 11.1498 23.1112 9.44294 22.5105 8.25074C21.8402 6.92067 19.0319 4.35847 16.3457 2.62627C14.6727 1.54741 13.1351 0.824224 11.1032 0.160524C10.5728 -0.012719 10.4855 -0.0318588 10.5426 0.037476ZM18.5165 21.3756C18.5169 21.3949 18.8769 22.0124 19.3165 22.7477C23.2209 29.2789 25.0824 32.5236 25.4202 33.3864C25.4634 33.497 25.488 33.6102 25.4747 33.6381C25.2731 34.0611 21.1379 34.8677 17.4669 35.2C15.9257 35.3395 15.2482 35.3748 13.3619 35.4138C11.8409 35.4452 11.3949 35.4685 11.2022 35.5263C10.1753 35.8347 9.66724 36.6093 9.67617 37.8531C9.68369 38.9005 10.0284 39.4409 11.1557 40.1722C12.0894 40.7779 12.3244 40.8897 15.0075 42.0045C15.4459 42.1866 16.3812 42.5647 16.9063 42.772C18.3475 43.341 19.118 43.6427 19.6189 43.8345C19.9371 43.9563 20.4335 44.1473 20.722 44.2589C21.9078 44.7176 24.3173 45.6001 24.9346 45.8017C25.5364 45.9982 25.5648 46.0298 23.8866 44.6392C23.6081 44.4084 23.2388 44.1012 23.0658 43.9566C22.8928 43.8119 22.6568 43.6161 22.5413 43.5214C22.4259 43.4267 21.8395 42.9412 21.2382 42.4424C20.637 41.9437 19.6093 41.0924 18.9546 40.5505C18.0961 39.8402 17.7807 39.5562 17.8235 39.5323C17.8561 39.5141 18.1635 39.4665 18.5066 39.4265C18.8497 39.3864 19.3786 39.3018 19.682 39.2384C19.9855 39.175 20.7382 39.0267 21.3549 38.9089C24.2716 38.3517 26.0285 37.9043 26.9247 37.4904C27.2425 37.3437 27.749 37.0208 27.9789 36.8184C28.3115 36.5257 28.6482 36.0337 28.8238 35.5839L28.9862 35.1676L28.9977 34.3712C29.0113 33.4248 28.9725 33.2026 28.6542 32.4051C28.0466 30.8826 26.1813 28.4053 23.9228 26.1211C23.6045 25.7992 23.043 25.2506 22.675 24.9019C21.9297 24.1958 21.8971 24.1658 20.6677 23.0592C20.0848 22.5345 18.6009 21.3404 18.5317 21.3404C18.523 21.3404 18.5161 21.3562 18.5165 21.3756ZM4.98912 31.2213C4.11311 31.2871 2.91994 31.4854 2.05666 31.7086C0.890513 32.0102 0.304094 32.3754 0.0848106 32.9367C-0.00318489 33.162 -0.00658464 33.201 0.00451876 33.8589C0.01602 34.5426 0.0167433 34.5476 0.149695 34.9003C0.29299 35.2804 0.649674 36.0077 0.861615 36.352C1.39834 37.2236 1.7977 37.8065 3.01521 39.495C5.21531 42.5463 6.22117 43.6724 10.4323 47.7987C11.9881 49.3232 12.729 50.1515 12.729 50.3665C12.729 50.646 12.2101 51.0542 11.1738 51.5899C8.87821 52.7765 8.0035 53.2893 7.1659 53.9398C6.69391 54.3063 6.03902 54.9458 6.08054 54.9997C6.10937 55.0371 15.8216 51.871 16.2414 51.6874C16.967 51.3701 17.2303 51.1674 17.3566 50.829C17.4355 50.6175 17.452 50.3097 17.3975 50.0635C17.3001 49.6228 16.4778 48.3832 15.6947 47.4963C15.3686 47.1269 13.158 44.8234 11.1225 42.7319C7.75568 39.2724 5.46129 36.8635 5.07303 36.3807C4.67367 35.884 4.26577 35.2604 4.26577 35.1465C4.26577 35.0537 4.44039 34.8954 4.75128 34.7065C5.31676 34.3628 6.66302 33.8169 9.31113 32.8578C10.9137 32.2773 12.3217 31.7279 12.379 31.6606C12.4286 31.6025 11.0278 31.437 9.38347 31.3065C8.51245 31.2375 5.54132 31.1798 4.98912 31.2213Z" fill="#262626"/>
</svg>
