<svg width="59" height="59" viewBox="0 0 59 59" fill="none" xmlns="http://www.w3.org/2000/svg">
<g id="vk-logo">
<g id="Base">
<path id="Vector" d="M20.3307 -0.440674H38.7005C55.4797 -0.440674 59.4406 3.55141 59.4406 20.3306V38.7004C59.4406 55.4796 55.4486 59.4405 38.6693 59.4405H20.2995C3.52034 59.4405 -0.440552 55.4484 -0.440552 38.6692V20.2994C-0.440552 3.55141 3.55153 -0.440674 20.3307 -0.440674Z" fill="#1380FF"/>
</g>
<path id="Logo" fill-rule="evenodd" clip-rule="evenodd" d="M48.5871 20.1748C48.8678 19.2392 48.5871 18.5842 47.2772 18.5842H42.9108C41.7881 18.5842 41.2891 19.1768 41.0084 19.8318C41.0084 19.8318 38.794 25.2585 35.644 28.7516C34.6148 29.7808 34.1782 30.0926 33.6168 30.0926C33.3361 30.0926 32.9306 29.7808 32.9306 28.8451V20.1748C32.9306 19.052 32.6188 18.5842 31.6831 18.5842H24.8217C24.1356 18.5842 23.699 19.1144 23.699 19.5822C23.699 20.6426 25.2584 20.8922 25.4455 23.8238V30.2486C25.4455 31.6521 25.196 31.9016 24.6346 31.9016C23.1688 31.9016 19.5509 26.4748 17.4301 20.2372C16.9935 19.0832 16.5881 18.5842 15.4653 18.5842H11.099C9.85143 18.5842 9.60193 19.1768 9.60193 19.8318C9.60193 20.9857 11.0678 26.7243 16.4945 34.303C20.1123 39.4803 25.196 42.2872 29.8118 42.2872C32.5876 42.2872 32.9306 41.6634 32.9306 40.603V36.6733C32.9306 35.4258 33.1801 35.1763 34.0846 35.1763C34.7396 35.1763 35.8311 35.4882 38.4198 37.9832C41.3826 40.9461 41.8816 42.2872 43.5346 42.2872H47.9009C49.1485 42.2872 49.7722 41.6634 49.398 40.4471C48.9925 39.2308 47.5891 37.453 45.7178 35.3322C44.6886 34.1159 43.1603 32.8372 42.7237 32.1822C42.0688 31.3402 42.2559 30.9659 42.7237 30.2486C42.7237 30.2174 48.0569 22.7322 48.5871 20.1748Z" fill="#E6E6E6"/>
</g>
</svg>
